<?xml version="1.0" standalone="no"?>
<!DOCTYPE svg PUBLIC "-//W3C//DTD SVG 20010904//EN"
 "http://www.w3.org/TR/2001/REC-SVG-20010904/DTD/svg10.dtd">
<svg version="1.0" xmlns="http://www.w3.org/2000/svg"
 width="1024.000000pt" height="1024.000000pt" viewBox="0 0 1024.000000 1024.000000"
 preserveAspectRatio="xMidYMid meet">

<g transform="translate(0.000000,1024.000000) scale(0.100000,-0.100000)"
fill="#000000" stroke="none">
<path d="M4940 7266 c-41 -18 -293 -125 -560 -238 -267 -113 -525 -223 -575
-245 l-90 -39 -3 -246 -2 -245 202 58 c157 44 947 274 1099 319 19 6 139 -26
480 -126 664 -196 864 -254 877 -254 9 0 12 65 12 250 0 230 -1 251 -17 257
-10 3 -70 27 -133 53 -63 27 -243 101 -400 165 -157 65 -397 164 -534 221
-136 57 -256 104 -265 103 -9 0 -50 -15 -91 -33z"/>
<path d="M4830 6330 c-91 -26 -358 -103 -595 -170 -236 -68 -451 -129 -477
-137 l-48 -14 0 -448 0 -447 110 -117 c61 -63 145 -145 188 -180 233 -194 519
-329 767 -362 129 -17 418 -20 566 -4 332 33 703 154 970 316 l64 38 3 607 2
607 -42 11 c-52 13 -500 136 -954 260 -181 49 -342 89 -359 89 -16 -1 -104
-23 -195 -49z"/>
<path d="M950 3234 c-157 -31 -247 -117 -257 -248 -7 -78 8 -126 55 -178 44
-49 95 -75 242 -123 92 -31 122 -45 153 -75 43 -44 49 -86 17 -137 -30 -49
-73 -68 -160 -68 -61 0 -86 5 -135 28 -32 15 -74 39 -91 52 l-33 25 -47 -61
c-26 -34 -42 -64 -37 -68 149 -98 195 -114 333 -115 126 -1 188 17 253 74 63
56 90 123 85 215 -6 136 -80 210 -262 266 -130 40 -184 71 -202 116 -19 44
-11 83 24 116 60 56 170 58 281 5 35 -17 66 -26 70 -21 3 5 21 30 39 56 l33
46 -39 26 c-63 42 -139 66 -221 70 -42 2 -87 1 -101 -1z"/>
<path d="M4450 3205 c0 -6 113 -309 223 -595 41 -107 85 -225 98 -262 l24 -68
90 0 90 0 79 213 c44 116 123 326 176 465 l97 252 -86 0 -86 0 -91 -248 c-51
-136 -109 -300 -130 -364 -22 -65 -41 -117 -44 -118 -3 0 -30 69 -59 153 -30
83 -90 247 -132 362 l-77 210 -86 3 c-47 1 -86 0 -86 -3z"/>
<path d="M1639 2947 c-99 -37 -178 -119 -205 -214 -25 -85 -16 -212 20 -283
32 -64 56 -91 113 -131 84 -59 233 -74 329 -34 45 19 134 85 134 100 0 6 -20
27 -44 48 l-45 37 -28 -24 c-49 -40 -90 -56 -148 -56 -88 0 -148 38 -180 113
-29 71 -43 67 236 67 l252 0 -7 70 c-12 137 -67 230 -167 285 -45 24 -68 30
-139 32 -54 2 -98 -2 -121 -10z m206 -133 c26 -17 78 -111 69 -125 -3 -5 -82
-9 -176 -9 l-170 0 7 28 c10 40 36 82 67 105 50 38 146 38 203 1z"/>
<path d="M2434 2941 c-17 -10 -45 -36 -62 -57 l-32 -39 -2 30 c0 17 0 40 1 53
2 21 -2 22 -74 22 l-75 0 0 -335 0 -335 74 0 74 0 3 209 4 209 30 43 c44 62
76 82 140 87 l55 4 0 64 0 64 -52 0 c-34 0 -64 -7 -84 -19z"/>
<path d="M2847 2946 c-94 -34 -159 -101 -198 -205 -31 -83 -24 -213 16 -294
70 -142 228 -212 396 -177 62 13 175 78 186 107 6 15 -38 67 -70 84 -14 8 -25
4 -50 -17 -46 -39 -89 -54 -152 -54 -88 0 -148 38 -180 113 -29 71 -42 67 230
67 l245 0 0 54 c0 30 -9 84 -21 122 -28 90 -108 174 -189 198 -65 19 -161 20
-213 2z m193 -128 c43 -29 68 -65 76 -105 l7 -33 -173 0 -172 0 7 28 c11 43
45 92 79 113 45 28 133 26 176 -3z"/>
<path d="M3645 2941 c-23 -10 -55 -36 -73 -57 l-31 -39 -1 53 0 52 -75 0 -75
0 0 -335 0 -335 75 0 75 0 0 183 c0 100 5 198 10 218 24 86 101 149 182 149
l38 0 0 65 0 65 -42 0 c-24 0 -61 -9 -83 -19z"/>
<path d="M4047 2946 c-133 -49 -217 -175 -217 -325 0 -225 162 -376 384 -358
79 7 174 48 219 94 l27 29 -44 43 -44 43 -52 -36 c-29 -20 -63 -39 -77 -42
-45 -12 -142 1 -171 23 -34 25 -78 89 -86 126 l-6 27 246 0 247 0 -5 78 c-7
130 -62 224 -160 277 -44 24 -67 30 -138 32 -56 2 -98 -2 -123 -11z m209 -138
c20 -18 43 -47 50 -65 27 -64 31 -63 -150 -63 -91 0 -167 4 -170 8 -5 9 26 78
47 104 25 31 71 48 129 48 50 0 62 -4 94 -32z"/>
<path d="M5470 2939 c-75 -30 -150 -107 -180 -184 -17 -45 -23 -81 -24 -146 0
-77 3 -92 32 -152 40 -81 112 -148 185 -174 82 -28 207 -24 278 9 76 35 129
85 165 155 27 54 29 66 29 168 0 102 -2 114 -29 165 -36 68 -94 126 -155 153
-70 32 -227 35 -301 6z m193 -110 c150 -41 198 -271 81 -381 -100 -93 -277
-43 -314 90 -18 67 -12 143 15 199 44 87 121 119 218 92z"/>
<path d="M6889 2945 c-49 -16 -141 -73 -146 -90 -1 -5 15 -30 36 -54 l38 -44
35 26 c127 97 278 67 302 -60 l6 -33 -107 0 c-136 0 -208 -19 -267 -72 -53
-46 -70 -90 -64 -168 8 -111 81 -178 204 -188 77 -6 149 18 201 65 19 18 37
33 39 33 2 0 4 -18 4 -40 l0 -40 71 0 70 0 -3 243 c-3 231 -4 244 -26 287 -32
61 -58 88 -117 117 -63 33 -203 42 -276 18z m271 -409 c0 -51 -29 -99 -80
-134 -30 -20 -44 -23 -97 -20 -79 5 -113 32 -113 89 0 75 61 108 203 109 l87
0 0 -44z"/>
<path d="M7660 2943 c-142 -49 -228 -188 -218 -352 6 -100 36 -166 102 -229
67 -64 133 -87 227 -79 80 7 112 21 167 79 l42 43 0 -56 c0 -153 -77 -228
-231 -229 -68 0 -85 4 -145 34 -38 19 -69 34 -69 33 0 -1 -15 -24 -34 -50 -32
-46 -32 -49 -15 -63 88 -67 198 -99 311 -91 135 10 243 81 296 195 21 45 22
60 25 410 l3 362 -71 0 -70 0 0 -40 0 -41 -37 30 c-75 60 -188 77 -283 44z
m220 -128 c59 -30 100 -111 100 -194 -1 -145 -142 -248 -267 -196 -48 20 -71
41 -95 88 -25 50 -27 160 -4 209 48 101 169 143 266 93z"/>
<path d="M8458 2944 c-64 -20 -150 -99 -184 -172 -50 -106 -42 -253 21 -352
34 -54 109 -116 163 -135 141 -48 288 -19 377 74 l29 31 -41 42 -41 41 -33
-26 c-19 -13 -48 -32 -66 -41 -39 -20 -132 -21 -177 -2 -42 18 -91 78 -104
127 l-10 39 251 0 250 0 -6 73 c-9 109 -32 163 -97 229 -43 43 -69 60 -110 72
-65 20 -159 20 -222 0z m213 -131 c30 -25 68 -92 69 -120 0 -10 -41 -13 -171
-13 l-171 0 7 28 c21 87 80 132 171 132 53 0 67 -4 95 -27z"/>
<path d="M9126 2945 c-59 -22 -102 -59 -125 -108 -26 -53 -26 -99 -2 -154 25
-53 89 -91 225 -134 96 -29 146 -61 146 -92 0 -23 -46 -58 -88 -68 -66 -14
-172 13 -224 58 -14 13 -20 9 -52 -33 -20 -26 -36 -50 -36 -55 0 -13 53 -46
111 -70 65 -27 219 -33 282 -10 106 37 171 156 136 248 -25 68 -80 103 -236
153 -146 46 -181 95 -104 147 55 37 180 25 232 -23 15 -14 20 -12 48 23 17 21
30 45 29 53 -2 8 -28 28 -58 45 -48 26 -67 30 -150 32 -66 2 -107 -2 -134 -12z"/>
<path d="M5973 2938 c11 -28 168 -390 221 -511 31 -71 56 -138 56 -150 0 -12
-13 -44 -28 -71 -32 -59 -81 -88 -147 -88 l-45 0 0 -63 c0 -72 4 -75 95 -75
88 1 176 54 216 133 11 20 90 214 175 429 86 216 158 396 160 400 3 5 -32 8
-78 8 l-83 0 -57 -148 c-32 -81 -72 -186 -90 -234 -18 -48 -36 -88 -39 -88 -3
0 -24 48 -47 108 -24 59 -66 163 -96 232 l-53 125 -82 3 c-65 2 -82 0 -78 -10z"/>
</g>
</svg>
